<svg width="49" height="48" viewBox="0 0 49 48" fill="none" xmlns="http://www.w3.org/2000/svg">
<path d="M24 0C10.7451 0 0 10.7451 0 24C0 31.429 3.37597 38.0692 8.67683 42.4715L8.77479 42.4254V41.136C8.77479 39.0294 10.4886 37.3156 12.5952 37.3156H35.4048C37.5114 37.3156 39.2252 39.0294 39.2252 41.136V42.4254L39.3232 42.4715C44.624 38.0692 48 31.429 48 24C48 10.7451 37.2548 0 24 0Z" fill="#5F80F8"/>
<path d="M16.3594 35.3169H31.641V37.3159H16.3594V35.3169Z" fill="white"/>
<path d="M16.3594 35.3169H20.2777V37.3159H16.3594V35.3169Z" fill="#EAF6FF"/>
<path d="M35.4057 37.2178H12.5961C10.4321 37.2178 8.67773 38.9721 8.67773 41.1361V42.4716C12.8346 45.9238 18.1752 48.0001 24.0009 48.0001C29.8266 48.0001 35.1672 45.9238 39.3241 42.4716V41.1361C39.3241 38.972 37.5697 37.2178 35.4057 37.2178Z" fill="#D8ECFE"/>
<path d="M12.7505 41.1361C12.7505 38.9721 14.5048 37.2178 16.6689 37.2178H12.5961C10.4321 37.2178 8.67773 38.9721 8.67773 41.1361V42.4716C9.93357 43.5145 11.2979 44.4308 12.7505 45.2033V41.1361Z" fill="#C4E2FF"/>
<path d="M24.371 44.8101L27.1744 41.5607C27.4482 41.2433 27.2227 40.751 26.8035 40.751H21.1968C20.7776 40.751 20.5521 41.2433 20.8259 41.5607L23.6293 44.8101C23.8246 45.0366 24.1755 45.0366 24.371 44.8101Z" fill="white"/>
<path d="M22.8465 41.5607C22.5727 41.2433 22.7981 40.751 23.2174 40.751H21.1968C20.7776 40.751 20.5521 41.2433 20.8259 41.5607L23.6292 44.8101C23.8246 45.0366 24.1755 45.0366 24.371 44.8101L25.0104 44.0688L22.8465 41.5607Z" fill="#EAF6FF"/>
<path d="M8.51343 30.8308V26.5789C8.51343 25.7971 8.59121 25.0332 8.73834 24.2939H8.02265C6.57599 24.2939 5.40332 25.4666 5.40332 26.9133V29.1397C5.40332 30.5864 6.57599 31.759 8.02265 31.759H8.6107C8.54732 31.4595 8.51343 31.149 8.51343 30.8308Z" fill="white"/>
<path d="M39.9794 24.2939H39.2637C39.4108 25.0331 39.4886 25.7971 39.4886 26.5789V30.8308C39.4886 31.149 39.4547 31.4595 39.3914 31.7591H39.9795C41.4261 31.7591 42.5988 30.5864 42.5988 29.1398V26.9134C42.5987 25.4666 41.426 24.2939 39.9794 24.2939Z" fill="white"/>
<path d="M35.0022 35.4146H12.9998C10.4683 35.4146 8.41602 33.3624 8.41602 30.8308V26.579C8.41602 20.0692 13.6932 14.792 20.203 14.792H27.799C34.3088 14.792 39.586 20.0692 39.586 26.579V30.8308C39.586 33.3624 37.5338 35.4146 35.0022 35.4146Z" fill="#D8ECFE"/>
<path d="M13.5195 30.8307V29.307C12.781 28.2657 12.3451 26.9955 12.3451 25.6245C12.3451 23.3191 13.5739 21.2955 15.4108 20.1737C17.5115 16.9349 21.1585 14.792 25.3065 14.792H20.203C13.6933 14.792 8.41602 20.0692 8.41602 26.579V30.8308C8.41602 33.3624 10.4683 35.4146 12.9998 35.4146H18.1033C15.5717 35.4146 13.5195 33.3624 13.5195 30.8307Z" fill="#C4E2FF"/>
<path d="M18.7271 32.0069C15.2079 32.0069 12.3447 29.1437 12.3447 25.6245C12.3447 22.1053 15.2079 19.2422 18.7271 19.2422H29.2745C32.7937 19.2422 35.6568 22.1053 35.6568 25.6245C35.6568 29.1437 32.7937 32.0069 29.2745 32.0069H18.7271Z" fill="#116D9A"/>
<path d="M16.4579 25.6245C16.4579 22.1053 19.3211 19.2422 22.8403 19.2422H18.7271C15.2079 19.2422 12.3447 22.1053 12.3447 25.6245C12.3447 29.1437 15.2079 32.0069 18.7271 32.0069H22.8403C19.3211 32.0069 16.4579 29.1437 16.4579 25.6245Z" fill="#005E89"/>
<path d="M27.4056 28.7022H20.5953C20.2336 28.7022 19.9404 28.409 19.9404 28.0474V26.9996C19.9404 26.6379 20.2336 26.3447 20.5953 26.3447H27.4056C27.7673 26.3447 28.0605 26.6379 28.0605 26.9996V28.0474C28.0605 28.409 27.7673 28.7022 27.4056 28.7022Z" fill="#F2C94C"/>
<path d="M18.7949 25.5591H17.0924C16.7307 25.5591 16.4375 25.2659 16.4375 24.9043V23.2017C16.4375 22.8401 16.7307 22.5469 17.0924 22.5469H18.7949C19.1566 22.5469 19.4497 22.8401 19.4497 23.2017V24.9043C19.4497 25.2659 19.1566 25.5591 18.7949 25.5591Z" fill="#F2C94C"/>
<path d="M30.9091 25.5591H29.2066C28.8449 25.5591 28.5518 25.2659 28.5518 24.9043V23.2017C28.5518 22.8401 28.8449 22.5469 29.2066 22.5469H30.9091C31.2708 22.5469 31.564 22.8401 31.564 23.2017V24.9043C31.564 25.2659 31.2708 25.5591 30.9091 25.5591Z" fill="#F2C94C"/>
<path fill-rule="evenodd" clip-rule="evenodd" d="M43 13.9961C45.7614 13.9961 48 11.7575 48 8.99609C48 6.23467 45.7614 3.99609 43 3.99609C40.2386 3.99609 38 6.23467 38 8.99609C38 11.7575 40.2386 13.9961 43 13.9961Z" fill="#27AE60" stroke="#F7F8FB" stroke-width="1.5"/>
</svg>
