<svg xmlns="http://www.w3.org/2000/svg" xmlns:xlink="http://www.w3.org/1999/xlink" width="143.571" height="121.846" viewBox="0 0 143.571 121.846"><defs><linearGradient id="a" x1="0.5" x2="0.5" y2="1" gradientUnits="objectBoundingBox"><stop offset="0" stop-color="#9cdfb5"/><stop offset="0.435" stop-color="#f2f671"/><stop offset="1" stop-color="#4e705b"/></linearGradient><linearGradient id="c" x1="0.862" y1="0.302" x2="0.147" y2="0.624" gradientUnits="objectBoundingBox"><stop offset="0.227" stop-color="#ffb8af"/><stop offset="1" stop-color="#ff988e"/></linearGradient><linearGradient id="d" x1="0.385" y1="0.371" x2="0.833" y2="0.718" xlink:href="#c"/><linearGradient id="e" x1="0.485" y1="0.897" x2="0.503" y2="0.291" gradientUnits="objectBoundingBox"><stop offset="0" stop-color="#ffc827"/><stop offset="1" stop-color="#ffef4d"/></linearGradient><linearGradient id="f" x1="0.493" y1="0.285" x2="0.516" y2="1.05" xlink:href="#c"/><linearGradient id="g" x1="0.493" y1="1.191" x2="0.534" y2="-0.117" gradientUnits="objectBoundingBox"><stop offset="0.195" stop-color="#544948"/><stop offset="1" stop-color="#794948"/></linearGradient><linearGradient id="h" x1="0.503" y1="0.726" x2="0.651" y2="-0.215" gradientUnits="objectBoundingBox"><stop offset="0.158" stop-color="#8aeeff"/><stop offset="1" stop-color="#a9ffff"/></linearGradient><linearGradient id="i" x1="0.482" y1="0.884" x2="0.547" y2="-0.274" gradientUnits="objectBoundingBox"><stop offset="0.233" stop-color="#9be371"/><stop offset="1" stop-color="#bbff71"/></linearGradient><linearGradient id="j" x1="0.435" y1="-0.248" x2="0.51" y2="1.018" gradientUnits="objectBoundingBox"><stop offset="0.19" stop-color="#be93f9"/><stop offset="1" stop-color="#be93f9" stop-opacity="0"/></linearGradient><linearGradient id="k" x1="0.642" y1="0.938" x2="0.272" y2="0.035" gradientUnits="objectBoundingBox"><stop offset="0" stop-color="#ffd34d"/><stop offset="1" stop-color="#ffef4d"/></linearGradient><linearGradient id="l" x1="0.388" y1="0.674" x2="1.011" y2="-0.11" gradientUnits="objectBoundingBox"><stop offset="0.201" stop-color="#1f7eb9"/><stop offset="1" stop-color="#1fb6ff"/></linearGradient></defs><g transform="translate(9.032 -5.74)"><g transform="translate(-9.032 85.651)" opacity="0.6"><g transform="translate(0 0)"><path d="M50.463,283.959q-1.834-3.622-4.641-3.622-2.477,0-4.829,2.571a7.851,7.851,0,0,0-2.352,5.205,4.721,4.721,0,0,0-2.807.956,3.648,3.648,0,0,0-.611.6,4.75,4.75,0,0,0-.47-1.411,1.841,1.841,0,0,0-1.678-1.1q-1.819,0-2.415,2.195a7.016,7.016,0,0,0-.251,2.289h-.141a1.85,1.85,0,0,0-.956-.565q-.345,0-.6.565a7.8,7.8,0,0,1-.5,1.035l-.157-.078a1.174,1.174,0,0,0-.439-.862,1.288,1.288,0,0,0-.878-.454A1.619,1.619,0,0,0,25.5,292a3.069,3.069,0,0,0-.658,1.991q0,.222.016.439h39.62a11.593,11.593,0,0,0-.423-2.4q-.784-2.666-2.665-2.666a4.1,4.1,0,0,0-1.474.282.044.044,0,0,1-.031,0,12.145,12.145,0,0,0-1-3.481q-1.317-2.9-3.261-2.9a7.128,7.128,0,0,0-4.5,1.552c-.064.05-.126.1-.188.141Q50.724,284.481,50.463,283.959Z" transform="translate(-24.844 -280.337)" fill="#d4ffff"/></g></g><g transform="translate(84.375 56.266)" opacity="0.6"><g transform="translate(0 0)"><path d="M363.41,205.267q-.095-.246-.586-.246a1.88,1.88,0,0,0-.605.189,4.415,4.415,0,0,1-.492.17q-.17,0-.511-.662t-.662-.662q-.378,0-.927.624a2.7,2.7,0,0,0-.643,1.476h4.558q-.114-.794-.132-.889m-12.068-4.124q-.284-1.7-1.532-1.7a5.006,5.006,0,0,0-2.7,1.022q-1.324,1.078-1.456,1.154a8.209,8.209,0,0,0-.284-3.953q-.908-3.518-3.537-3.518a3.75,3.75,0,0,0-2.44,1.211,4.8,4.8,0,0,0-1.21,1.7,6.138,6.138,0,0,0-.378-.567,3.969,3.969,0,0,0-3.329-1.4,7.33,7.33,0,0,0-2.573.4q-1.663-5.921-6.7-5.921a7.182,7.182,0,0,0-4.71,2.251,8.524,8.524,0,0,0-2.97,6.526,5.585,5.585,0,0,0-2.611,2.1,8.059,8.059,0,0,0-1.532,4.918l44,.775a5.332,5.332,0,0,0-.246-.983q-.416-1.192-1.1-1.192a1.939,1.939,0,0,0-1.059.378q-.549.454-.738.586l-.076-.132a.111.111,0,0,0-.094-.057,7.883,7.883,0,0,0-.284-1.57q-.227-.416-1.1-.416a3.714,3.714,0,0,0-1.305.189Q351.373,201.4,351.342,201.143Z" transform="translate(-313.378 -189.567)" fill="#d4ffff"/></g></g><path d="M109.641,147.057a2.284,2.284,0,0,0-2.21.2,4.135,4.135,0,0,0-1.99,2.277q-.845.507-1.667,1.051a6.78,6.78,0,0,0,.63-1.04,2.8,2.8,0,0,0-.266-3.12q-.5-.706-1.411-.141a2.323,2.323,0,0,0-.925,2.007,4.178,4.178,0,0,0,1.026,2.929q-1.765,1.223-3.424,2.614a6.5,6.5,0,0,0,.579-1.2,2.792,2.792,0,0,0-.549-3.073q-.565-.659-1.427-.016a2.388,2.388,0,0,0-.737,2.1,4.246,4.246,0,0,0,1.352,2.857q-1.518,1.324-2.947,2.782a7.113,7.113,0,0,0,.451-1.249,2.961,2.961,0,0,0-.862-3.167q-.674-.627-1.505.126a2.5,2.5,0,0,0-.58,2.273,4.5,4.5,0,0,0,1.691,2.866q-1.384,1.486-2.675,3.106a6.981,6.981,0,0,0,.342-1.316,2.992,2.992,0,0,0-1.176-3.073q-.721-.549-1.474.266a2.543,2.543,0,0,0-.361,2.336,4.52,4.52,0,0,0,1.95,2.7q-.934,1.222-1.817,2.515c-.16.234-.313.469-.469.7a6.82,6.82,0,0,0,.179-1.218,2.964,2.964,0,0,0-1.489-2.932q-.768-.486-1.427.423a2.475,2.475,0,0,0-.125,2.352,4.459,4.459,0,0,0,2.168,2.452q-1.34,2.131-2.451,4.317a6.444,6.444,0,0,0,.111-1.532,2.959,2.959,0,0,0-1.8-2.759q-.815-.407-1.364.565a2.5,2.5,0,0,0,.125,2.352,4.494,4.494,0,0,0,2.5,2.242q-.989,2.039-1.781,4.123a6.457,6.457,0,0,0-.123-1.489,3,3,0,0,0-2.117-2.446.768.768,0,0,1-.078-.016q-.844-.271-1.223.69c-.011.025-.022.051-.031.078a2.416,2.416,0,0,0,.47,2.289,4.5,4.5,0,0,0,2.753,1.844,48.214,48.214,0,0,0-1.436,4.805,6.3,6.3,0,0,0-.282-1.491,2.952,2.952,0,0,0-2.446-2.21q-.91-.188-1.16.893a2.4,2.4,0,0,0,.705,2.226,4.486,4.486,0,0,0,2.961,1.544q-.466,2.107-.744,4.252a6.389,6.389,0,0,0-.4-1.219,2.949,2.949,0,0,0-2.649-1.944q-.925-.094-1.066,1a2.427,2.427,0,0,0,.909,2.148,4.554,4.554,0,0,0,3.064,1.231q-.209,2.045-.243,4.124a6.173,6.173,0,0,0-.579-1.278,2.938,2.938,0,0,0-2.853-1.646q-.909.016-.925,1.129a2.466,2.466,0,0,0,1.129,2.038,4.686,4.686,0,0,0,3.22.867q.009,2.15.2,4.333a6.009,6.009,0,0,0-.788-1.3,2.915,2.915,0,0,0-3.026-1.286q-.909.141-.784,1.239a2.514,2.514,0,0,0,1.38,1.882,4.743,4.743,0,0,0,3.315.454q.21,1.97.567,3.965A5.964,5.964,0,0,0,80.7,201.3a2.937,2.937,0,0,0-3.1-1.066q-.894.2-.69,1.286a2.547,2.547,0,0,0,1.505,1.787,4.772,4.772,0,0,0,3.345.219q.366,1.856.844,3.645a6.286,6.286,0,0,0-.881-.979,2.925,2.925,0,0,0-3.183-.769q-.878.283-.58,1.333a2.575,2.575,0,0,0,1.678,1.646,4.763,4.763,0,0,0,3.289-.059q.471,1.618,1.037,3.176a6.482,6.482,0,0,0-.987-.954,2.946,2.946,0,0,0-3.245-.517q-.846.345-.47,1.38a2.613,2.613,0,0,0,1.819,1.505,4.763,4.763,0,0,0,3.292-.33,47.933,47.933,0,0,0,9.8,15.643.314.314,0,0,0,.457-.429,47.313,47.313,0,0,1-9.661-15.415,4.9,4.9,0,0,0,2.667-2.134,2.57,2.57,0,0,0,.219-2.336q-.47-1-1.317-.658a2.972,2.972,0,0,0-1.928,2.666,6.249,6.249,0,0,0-.007,1.5q-.58-1.593-1.065-3.246a4.989,4.989,0,0,0,2.844-1.923,2.578,2.578,0,0,0,.408-2.321q-.392-1.05-1.27-.768a2.989,2.989,0,0,0-2.117,2.524,6.017,6.017,0,0,0-.124,1.546q-.509-1.871-.9-3.817a5.041,5.041,0,0,0,2.948-1.633,2.613,2.613,0,0,0,.612-2.289q-.282-1.066-1.192-.878a2.973,2.973,0,0,0-2.336,2.32,6.237,6.237,0,0,0-.254,1.3q-.338-1.91-.54-3.8a5.061,5.061,0,0,0,3.068-1.425,2.653,2.653,0,0,0,.768-2.258q-.2-1.082-1.129-.956a2.984,2.984,0,0,0-2.493,2.163,6.433,6.433,0,0,0-.334,1.208q-.165-2-.175-3.976a4.968,4.968,0,0,0,3.222-1.041,2.631,2.631,0,0,0,1.051-2.132q-.063-1.1-1-1.1a2.965,2.965,0,0,0-2.728,1.834,6.259,6.259,0,0,0-.533,1.291q.037-2.021.236-4.009a4.948,4.948,0,0,0,3.354-.683,2.611,2.611,0,0,0,1.286-1.991q.063-1.1-.878-1.192a2.971,2.971,0,0,0-2.916,1.505,6.058,6.058,0,0,0-.73,1.343q.272-2.213.751-4.383a4.928,4.928,0,0,0,3.35-.362,2.61,2.61,0,0,0,1.489-1.85q.173-1.1-.752-1.286a2.988,2.988,0,0,0-3.057,1.223,6.192,6.192,0,0,0-.737,1.027q.56-2.253,1.343-4.458a4.911,4.911,0,0,0,3.377.013,2.568,2.568,0,0,0,1.693-1.678q.3-1.082-.612-1.364a3.01,3.01,0,0,0-3.167.893,6.4,6.4,0,0,0-.858.963q.741-1.926,1.653-3.814a4.737,4.737,0,0,0,3.282.5,2.574,2.574,0,0,0,1.928-1.4q.47-1.019-.408-1.442a2.977,2.977,0,0,0-3.246.408,6.239,6.239,0,0,0-1.007.827q1.048-2.042,2.3-4.036a4.778,4.778,0,0,0,3.3.888,2.6,2.6,0,0,0,2.054-1.176q.58-.972-.251-1.489a3,3,0,0,0-3.261.078,6.024,6.024,0,0,0-1.405,1.007q.362-.558.739-1.113.86-1.262,1.771-2.453a4.643,4.643,0,0,0,3.128,1.195,2.639,2.639,0,0,0,2.179-.941q.658-.925-.094-1.521a3.014,3.014,0,0,0-3.261-.266,6.425,6.425,0,0,0-1.306.708q1.3-1.639,2.7-3.143a4.681,4.681,0,0,0,3.016,1.494,2.61,2.61,0,0,0,2.258-.737q.737-.862.047-1.521a3.053,3.053,0,0,0-3.23-.58,6.433,6.433,0,0,0-1.37.584q1.446-1.492,2.991-2.837a4.392,4.392,0,0,0,2.675,1.642,2.462,2.462,0,0,0,2.2-.5q.784-.753.188-1.442a2.872,2.872,0,0,0-2.994-.815,6.386,6.386,0,0,0-1.165.351q1.579-1.313,3.25-2.48a4.381,4.381,0,0,0,2.54,1.926,2.48,2.48,0,0,0,2.242-.282q.847-.675.329-1.427a2.871,2.871,0,0,0-2.916-1.1,6.163,6.163,0,0,0-1.3.279q.9-.594,1.824-1.148a6.919,6.919,0,0,0,1.779.132,2.8,2.8,0,0,0,2.571-1.8Q110.582,147.559,109.641,147.057Z" transform="translate(-68.659 -103.863)" fill="url(#a)"/><path d="M351.11,198.059a2.514,2.514,0,0,0,1.38-1.882q.126-1.1-.784-1.239a2.915,2.915,0,0,0-3.026,1.286,6.01,6.01,0,0,0-.788,1.3q.192-2.183.2-4.333a4.686,4.686,0,0,0,3.22-.867,2.466,2.466,0,0,0,1.129-2.038q-.016-1.113-.925-1.129a2.939,2.939,0,0,0-2.854,1.646,6.168,6.168,0,0,0-.579,1.278q-.037-2.078-.243-4.124a4.553,4.553,0,0,0,3.064-1.231,2.427,2.427,0,0,0,.909-2.148q-.141-1.1-1.066-1a2.949,2.949,0,0,0-2.649,1.944,6.381,6.381,0,0,0-.4,1.219q-.275-2.146-.744-4.252a4.487,4.487,0,0,0,2.96-1.544,2.4,2.4,0,0,0,.705-2.226q-.251-1.082-1.16-.893a2.952,2.952,0,0,0-2.446,2.21,6.322,6.322,0,0,0-.282,1.491,48.2,48.2,0,0,0-1.436-4.805,4.5,4.5,0,0,0,2.753-1.844,2.416,2.416,0,0,0,.47-2.289c-.009-.027-.02-.053-.031-.078q-.378-.961-1.223-.69a.769.769,0,0,1-.078.016,3,3,0,0,0-2.117,2.446,6.45,6.45,0,0,0-.123,1.489q-.791-2.084-1.781-4.123a4.494,4.494,0,0,0,2.5-2.242,2.5,2.5,0,0,0,.125-2.352q-.549-.972-1.364-.565a2.959,2.959,0,0,0-1.8,2.759,6.443,6.443,0,0,0,.111,1.533q-1.11-2.186-2.451-4.317a4.459,4.459,0,0,0,2.168-2.452,2.475,2.475,0,0,0-.125-2.352q-.659-.909-1.427-.423a2.964,2.964,0,0,0-1.489,2.932,6.816,6.816,0,0,0,.179,1.218c-.155-.235-.309-.471-.469-.7q-.882-1.294-1.817-2.515a4.52,4.52,0,0,0,1.95-2.7,2.542,2.542,0,0,0-.361-2.336q-.753-.815-1.474-.266a2.992,2.992,0,0,0-1.176,3.073,7,7,0,0,0,.342,1.317q-1.292-1.619-2.676-3.107a4.5,4.5,0,0,0,1.691-2.867,2.5,2.5,0,0,0-.58-2.273q-.831-.753-1.505-.126a2.962,2.962,0,0,0-.862,3.167,7.162,7.162,0,0,0,.451,1.249q-1.426-1.463-2.948-2.782a4.247,4.247,0,0,0,1.352-2.857,2.388,2.388,0,0,0-.737-2.1q-.862-.643-1.427.016a2.792,2.792,0,0,0-.549,3.073,6.534,6.534,0,0,0,.579,1.2q-1.661-1.387-3.424-2.614a4.179,4.179,0,0,0,1.026-2.929,2.323,2.323,0,0,0-.925-2.007q-.91-.564-1.411.141a2.8,2.8,0,0,0-.266,3.12,6.762,6.762,0,0,0,.63,1.04c-.549-.361-1.1-.713-1.667-1.051a4.136,4.136,0,0,0-1.989-2.277,2.285,2.285,0,0,0-2.211-.2q-.941.5-.58,1.286a2.8,2.8,0,0,0,2.571,1.8,6.92,6.92,0,0,0,1.779-.132q.924.552,1.823,1.148a6.158,6.158,0,0,0-1.3-.279,2.871,2.871,0,0,0-2.916,1.1q-.518.752.329,1.427a2.48,2.48,0,0,0,2.242.282,4.378,4.378,0,0,0,2.54-1.926c1.116.775,2.2,1.6,3.25,2.479a6.4,6.4,0,0,0-1.165-.35,2.872,2.872,0,0,0-2.994.815q-.6.69.188,1.442a2.462,2.462,0,0,0,2.2.5,4.392,4.392,0,0,0,2.675-1.642q1.542,1.347,2.99,2.837a6.412,6.412,0,0,0-1.37-.584,3.053,3.053,0,0,0-3.23.58q-.69.659.047,1.521a2.609,2.609,0,0,0,2.258.737,4.681,4.681,0,0,0,3.016-1.494q1.4,1.5,2.7,3.142a6.406,6.406,0,0,0-1.305-.708,3.014,3.014,0,0,0-3.261.266q-.753.6-.094,1.521a2.639,2.639,0,0,0,2.179.941,4.641,4.641,0,0,0,3.128-1.195q.91,1.193,1.771,2.453.378.554.739,1.112a6.021,6.021,0,0,0-1.405-1.007,3,3,0,0,0-3.261-.078q-.831.517-.251,1.489a2.6,2.6,0,0,0,2.054,1.176,4.777,4.777,0,0,0,3.3-.888q1.251,1.994,2.3,4.036a6.259,6.259,0,0,0-1.007-.827,2.977,2.977,0,0,0-3.246-.408q-.878.423-.408,1.442a2.574,2.574,0,0,0,1.928,1.4,4.737,4.737,0,0,0,3.282-.5q.912,1.887,1.653,3.814a6.433,6.433,0,0,0-.858-.962,3.01,3.01,0,0,0-3.167-.893q-.91.282-.612,1.364a2.568,2.568,0,0,0,1.693,1.678,4.911,4.911,0,0,0,3.377-.013q.783,2.2,1.343,4.458a6.165,6.165,0,0,0-.738-1.027,2.988,2.988,0,0,0-3.057-1.223q-.925.188-.752,1.286A2.611,2.611,0,0,0,343,182.3a4.928,4.928,0,0,0,3.35.362q.477,2.171.751,4.383a6.028,6.028,0,0,0-.73-1.343,2.97,2.97,0,0,0-2.916-1.505q-.941.094-.878,1.192a2.611,2.611,0,0,0,1.285,1.991,4.948,4.948,0,0,0,3.355.683q.2,1.988.236,4.01a6.226,6.226,0,0,0-.533-1.291,2.965,2.965,0,0,0-2.728-1.834q-.941,0-1,1.1a2.631,2.631,0,0,0,1.051,2.132,4.969,4.969,0,0,0,3.222,1.041q-.009,1.973-.175,3.977a6.411,6.411,0,0,0-.334-1.208,2.984,2.984,0,0,0-2.493-2.163q-.925-.126-1.129.956a2.653,2.653,0,0,0,.768,2.258,5.063,5.063,0,0,0,3.068,1.426q-.2,1.886-.54,3.8a6.24,6.24,0,0,0-.254-1.3,2.972,2.972,0,0,0-2.336-2.32q-.909-.188-1.192.878a2.613,2.613,0,0,0,.612,2.289,5.04,5.04,0,0,0,2.947,1.633q-.385,1.946-.9,3.817a6.02,6.02,0,0,0-.124-1.547,2.989,2.989,0,0,0-2.117-2.524q-.878-.282-1.27.768a2.577,2.577,0,0,0,.408,2.321,4.988,4.988,0,0,0,2.844,1.923q-.482,1.654-1.065,3.246a6.249,6.249,0,0,0-.007-1.5,2.972,2.972,0,0,0-1.928-2.666q-.847-.345-1.317.658a2.57,2.57,0,0,0,.22,2.336,4.9,4.9,0,0,0,2.667,2.134,47.318,47.318,0,0,1-9.66,15.415.313.313,0,1,0,.457.429,47.936,47.936,0,0,0,9.8-15.643,4.763,4.763,0,0,0,3.292.33,2.613,2.613,0,0,0,1.819-1.505q.376-1.035-.47-1.38a2.946,2.946,0,0,0-3.245.517,6.465,6.465,0,0,0-.987.953q.563-1.56,1.037-3.176a4.764,4.764,0,0,0,3.289.059,2.575,2.575,0,0,0,1.678-1.646q.3-1.05-.58-1.333a2.925,2.925,0,0,0-3.183.769,6.283,6.283,0,0,0-.881.979q.478-1.789.844-3.645a4.772,4.772,0,0,0,3.345-.219,2.548,2.548,0,0,0,1.505-1.787q.2-1.082-.69-1.286a2.937,2.937,0,0,0-3.1,1.066,5.986,5.986,0,0,0-.856,1.173q.358-2,.567-3.965A4.745,4.745,0,0,0,351.11,198.059Z" transform="translate(-232.441 -103.863)" fill="url(#a)"/><g transform="translate(28.851 5.74)"><g transform="translate(50.067 17.071)"><path d="M314.5,86.607a4.21,4.21,0,0,0-1.039.345,3.686,3.686,0,0,0-1.092.635,1.875,1.875,0,0,0,.074-.323q.116-.947-.59-1.034a1.523,1.523,0,0,0-.771.151q-.479.2-.515.5a1,1,0,0,0,.146.525.918.918,0,0,1,.152.473.433.433,0,0,1-.219.358.4.4,0,0,0-.23.3,1.78,1.78,0,0,0,.1.432,2.054,2.054,0,0,0,.324.634,20.429,20.429,0,0,1-6.546,4.479,40.54,40.54,0,0,1-7.778,2.685l1.792,7.493a21.5,21.5,0,0,0,7.981-4.915,28.95,28.95,0,0,0,5.84-7,1.6,1.6,0,0,0,.437.141.615.615,0,0,0,.5-.236,2.942,2.942,0,0,1,.335-.309,9.736,9.736,0,0,0,1.359.324q.9.11.961-.424a.444.444,0,0,0-.18-.389,1.879,1.879,0,0,0-1.006-.351l-.295-.018q2.171-.591,2.251-1.246a.578.578,0,0,0,0-.28q-.058-.094-.4-.137a2.122,2.122,0,0,0-.742.066q-.5.113-.917.2.408-.195.746-.381,1.051-.589,1.112-1.088a.616.616,0,0,0-.039-.389.515.515,0,0,0-.382-.169,1.461,1.461,0,0,0-.818.11q-.539.266-.965.459a2.6,2.6,0,0,0,.305-.208,1.355,1.355,0,0,0,.487-.692.925.925,0,0,0-.06-.514.333.333,0,0,0-.323-.215m-2.073,1.512a2.9,2.9,0,0,1,1.129,2.342A2.9,2.9,0,0,0,312.426,88.119Z" transform="translate(-296.522 -86.224)" fill="url(#c)"/><g transform="translate(15.89 1.893)"><path d="M345.6,92.072a2.9,2.9,0,0,1,1.13,2.342" transform="translate(-345.605 -92.072)" fill="none" stroke="#ff9082" stroke-linecap="round" stroke-linejoin="round" stroke-width="1"/></g></g><g transform="translate(0 16.977)"><path d="M143.879,86.317a4.183,4.183,0,0,1,1.039.345,3.681,3.681,0,0,1,1.092.636,1.923,1.923,0,0,1-.074-.323q-.116-.948.59-1.034a1.518,1.518,0,0,1,.77.15q.479.2.515.5a1,1,0,0,1-.146.525.922.922,0,0,0-.152.473.434.434,0,0,0,.219.358.4.4,0,0,1,.23.3,1.786,1.786,0,0,1-.1.433,2.052,2.052,0,0,1-.324.634,20.433,20.433,0,0,0,6.546,4.479,40.547,40.547,0,0,0,7.777,2.684l-1.793,7.493a21.5,21.5,0,0,1-7.981-4.915,28.953,28.953,0,0,1-5.84-7,1.588,1.588,0,0,1-.437.141.616.616,0,0,1-.5-.236,2.917,2.917,0,0,0-.335-.309,9.7,9.7,0,0,1-1.359.324q-.9.11-.961-.424a.444.444,0,0,1,.18-.389,1.882,1.882,0,0,1,1.006-.35l.3-.019q-2.171-.591-2.251-1.246a.574.574,0,0,1,0-.28q.058-.095.4-.137a2.123,2.123,0,0,1,.742.067q.5.113.917.2-.409-.195-.746-.381-1.051-.588-1.112-1.088a.613.613,0,0,1,.04-.389.513.513,0,0,1,.381-.169,1.466,1.466,0,0,1,.818.11q.54.266.965.459a2.583,2.583,0,0,1-.3-.207,1.356,1.356,0,0,1-.487-.692.926.926,0,0,1,.06-.514.334.334,0,0,1,.323-.214m2.074,1.512a2.9,2.9,0,0,0-1.13,2.342A2.9,2.9,0,0,1,145.952,87.829Z" transform="translate(-141.865 -85.933)" fill="url(#d)"/><g transform="translate(2.965 1.88)"><path d="M152.153,91.74a2.9,2.9,0,0,0-1.129,2.342" transform="translate(-151.024 -91.74)" fill="none" stroke="#ff9082" stroke-linecap="round" stroke-linejoin="round" stroke-width="1"/></g></g><g transform="translate(16.5 26.025)"><path d="M204.2,140.965q1.7.418,2.812.659,1.208-3.395,1.6-4.53l-4.409,3.87m27.891.677q1.2-.277,3.089-.746l-4.669-3.8Q230.893,138.223,232.091,141.642Z" transform="translate(-200.52 -129.58)" fill="#ffbd34"/><path d="M230.913,124.329q-.173-2.5-.573-5.641a24.452,24.452,0,0,0-.955-4.807,58.487,58.487,0,0,1-14.058,3.853,1.3,1.3,0,0,1,.746,1.371,1.913,1.913,0,0,1-1.146,1.6,6.622,6.622,0,0,1-6.109,0,1.912,1.912,0,0,1-1.145-1.6,1.3,1.3,0,0,1,.746-1.371,58.109,58.109,0,0,1-14.058-3.853,25.154,25.154,0,0,0-.972,4.79q-.381,3.161-.556,5.641,1.153.342,3.159.833.266.065.521.121l4.409-3.87q-.389,1.135-1.6,4.53-.127.406-.277.833a124.357,124.357,0,0,0-3.523,14.023,89.01,89.01,0,0,1,32.7,0,124.362,124.362,0,0,0-3.523-14.023q-.156-.434-.295-.816-1.2-3.419-1.579-4.547l4.669,3.8q.132-.021.26-.052Q229.767,124.659,230.913,124.329Z" transform="translate(-192.834 -113.881)" fill="url(#e)"/><path d="M246.275,119.617a23.1,23.1,0,0,1-6.8,0q0,.937-.052,2a1.3,1.3,0,0,0-.746,1.371,1.912,1.912,0,0,0,1.145,1.6,6.622,6.622,0,0,0,6.109,0,1.913,1.913,0,0,0,1.146-1.6,1.3,1.3,0,0,0-.746-1.371Q246.275,120.554,246.275,119.617Z" transform="translate(-223.834 -117.76)" fill="#ff9082"/></g><g transform="translate(17.21 0)"><path d="M197.181,78.792a1.962,1.962,0,0,0-1.666.868,2.873,2.873,0,0,0-.486,1.493q-.06,1.492,1.718,2.03a6.5,6.5,0,0,0,1.753.278q-.017-.443,0-.9a28.762,28.762,0,0,1,.278-3.228,4.937,4.937,0,0,0-.521-.312,2.731,2.731,0,0,0-1.076-.226m30.789.538a28.776,28.776,0,0,1,.278,3.228q.018.46.017.9a6.371,6.371,0,0,0,1.718-.278q1.778-.538,1.718-2.03a2.873,2.873,0,0,0-.486-1.493,1.948,1.948,0,0,0-1.285-.833q-.183-.026-.382-.035a2.819,2.819,0,0,0-1.076.226A3.905,3.905,0,0,0,227.97,79.33Z" transform="translate(-195.027 -64.126)" fill="#ff9082"/><path d="M225.54,54.57q-.064.231-.173.8a9.649,9.649,0,0,0-.191,1.788v.139l-1.336.017q-4.153.076-9.3.347-.48.034-.92.069.065-.507.208-1.25.237-1.461.33-2.187-.252.408-1.041,1.874-.553,1.072-.868,1.649-3.228.185-5.033.278a14.865,14.865,0,0,0-.521,1.545,24.244,24.244,0,0,0-.677,3.124,28.772,28.772,0,0,0-.278,3.228q-.017.46,0,.9.086,6.041,4.426,9.06,3.7,2.537,10.431,2.6,6.749-.066,10.431-2.6,4.357-3.019,4.478-9.06,0-.443-.017-.9a28.772,28.772,0,0,0-.278-3.228,22.555,22.555,0,0,0-.694-3.124q-.263-.922-.642-1.892-1.646-.186-3.107-.3-.169-.261-.382-.573a18.924,18.924,0,0,0-1.267-1.649q.2.728.608,2.152-1.64-.094-3.055-.1A20.022,20.022,0,0,0,225.54,54.57Z" transform="translate(-202.264 -47.558)" fill="url(#f)"/><path d="M233.372,43.244a18.335,18.335,0,0,0-1.6-3.193Q227.65,33.5,218.168,33.49q-9.723.009-13.85,6.561a16.911,16.911,0,0,0-2.638,8.1,2.731,2.731,0,0,1,1.076.226,4.943,4.943,0,0,1,.521.312,24.228,24.228,0,0,1,.677-3.124,14.862,14.862,0,0,1,.521-1.545q1.8-.092,5.033-.278.315-.576.868-1.649.79-1.466,1.041-1.874-.093.726-.33,2.187-.143.742-.208,1.25.439-.035.92-.069,5.15-.271,9.3-.347l1.336-.017v-.139a9.65,9.65,0,0,1,.191-1.788q.11-.567.173-.8a20.022,20.022,0,0,1,1.128,2.707q1.415.01,3.055.1-.411-1.424-.608-2.152a18.92,18.92,0,0,1,1.267,1.649q.212.312.382.573,1.461.11,3.107.3.379.969.642,1.892a22.566,22.566,0,0,1,.694,3.124,3.913,3.913,0,0,1,.5-.312,2.819,2.819,0,0,1,1.076-.226q.2.009.382.035A17.087,17.087,0,0,0,233.372,43.244Z" transform="translate(-199.526 -33.49)" fill="url(#g)"/></g><g transform="translate(27.976 17.512)"><g transform="translate(0.602)"><path d="M230.577,87.915a.952.952,0,0,0,0,1.6,1.81,1.81,0,0,0,2.083,0,.952.952,0,0,0,0-1.6,1.81,1.81,0,0,0-2.083,0m12.809,0a1.81,1.81,0,0,0-2.083,0,.951.951,0,0,0,0,1.6,1.81,1.81,0,0,0,2.083,0,.952.952,0,0,0,0-1.6Z" transform="translate(-230.143 -87.585)" fill="#484d44"/><path d="M247.728,97.746a.451.451,0,0,0,.4.451,3.31,3.31,0,0,0,.868.1,3.72,3.72,0,0,0,.9-.1.451.451,0,0,0,.4-.451,1.246,1.246,0,0,0-.729-1.006,1.325,1.325,0,0,0-1.2.017A1.214,1.214,0,0,0,247.728,97.746Z" transform="translate(-242.035 -93.685)" fill="#ff9082"/></g><g transform="translate(0 4.942)"><path d="M228.284,102.852A5.946,5.946,0,0,0,231.373,105a12.637,12.637,0,0,0,4.547.885,10.413,10.413,0,0,0,5.571-1.527,10.581,10.581,0,0,0,1.927-1.51" transform="translate(-228.284 -102.852)" fill="none" stroke="#ff9082" stroke-linecap="round" stroke-linejoin="round" stroke-width="1"/></g></g></g><g transform="translate(23.738 47.376)"><g transform="translate(0 0)"><path d="M139.132,272.8a8.461,8.461,0,0,1,.534,3.148,13.76,13.76,0,0,1-.821,4.7,14.314,14.314,0,0,0-.821,4.9,5.829,5.829,0,0,0,1.082,3.23q.068.109.862,1.519a9.9,9.9,0,0,0,1.04,1.574,12.1,12.1,0,0,0,4.161,1.984,15.672,15.672,0,0,1,5.2,2.656q2.546,2.218,3.572,3.08,1.629,1.328,3.217,2.477a4.573,4.573,0,0,0,1.424.493,3.737,3.737,0,0,1,1.642.794q.534.493,1.424,1.41a2.915,2.915,0,0,0,1.752.712q.985.054,1.643.137t.164-.958a12.459,12.459,0,0,0-2.067-2.478q-1.437-1.287-2.094-1.985a10.228,10.228,0,0,1-2.464-6.776,15.361,15.361,0,0,1,.643-5.625,8.987,8.987,0,0,1,1.807-3q.123-.151.26-.287a47.838,47.838,0,0,1-20.819-10.923q-.849-.753-1.629-1.506a4.439,4.439,0,0,0,.287.725m63.1,5.243a5.784,5.784,0,0,1,.178,1.506,7.875,7.875,0,0,1-.164,1.04,7.578,7.578,0,0,0-.164,1.027q0,.2.164,1.341a17.868,17.868,0,0,1,.192,1.862,8.37,8.37,0,0,1-1.2,3.052q-1.246,2.313-2.683,5.2-.931,1.862.931,1.478a9.659,9.659,0,0,0,4.175-2.423,26.848,26.848,0,0,0,3.928-4.243,12.852,12.852,0,0,1,2.053-1.9,41.288,41.288,0,0,0,3.272-2.943,1.2,1.2,0,0,1,.424-.246,42.252,42.252,0,0,0,1.027-9.417,43.418,43.418,0,0,0-.411-6.036,46.533,46.533,0,0,1-5.9,6.242A50.563,50.563,0,0,1,202.232,278.047Z" transform="translate(-134.149 -233.274)" fill="#88d65a"/><path d="M130.037,194.927a11.423,11.423,0,0,0-1.506-1.369.868.868,0,0,1-.1-.082q-.287-.233-.52-.452-.356,1.533-.575,3.135a46.949,46.949,0,0,0,4.284,4.749,23.294,23.294,0,0,1-.725-3.942,3.978,3.978,0,0,0-.862-2.04m59.309-22.777q.972-.355,3.011-1.081a38.278,38.278,0,0,0-24.392-8.952q-.465-.014-.931-.014a38.377,38.377,0,0,0-23.94,7.884q-.89.671-1.752,1.41a5.682,5.682,0,0,0,.493.438q.137.109.287.219a8.042,8.042,0,0,0,3.422,1.4q.438.068,2.258.219a8.025,8.025,0,0,1,1.985.342,2.773,2.773,0,0,1,.985.767,3.037,3.037,0,0,0,.986.794,1.751,1.751,0,0,1,.958.944,3.744,3.744,0,0,1,.383,1.506q.083,2.039-4.421,6.255a55.549,55.549,0,0,1-5.667,4.7,44.332,44.332,0,0,1-3.887,2.45q-2.286,1.3-3.627,1.9t-2.368,1.163a2.235,2.235,0,0,0-1,2.2q.014,1.642.452,1.93a11.8,11.8,0,0,0,2.519.794q.506.123,4.709.712a22.031,22.031,0,0,1,4.654.972,6.371,6.371,0,0,0,1.56.438q.534.068,1.67.205a9.4,9.4,0,0,1,4.12,1.684q2.779,1.971,3.422,2.573a3.433,3.433,0,0,1,1.163,2.313,5.4,5.4,0,0,1-.753,3.134q-.151.247-1.574,1.889a55.163,55.163,0,0,0,12.962,1.478q15.864,0,27.978-7.939a2.9,2.9,0,0,0-1.314-1.82,7.537,7.537,0,0,0-3.655-.657,6.884,6.884,0,0,0-2.532.684,25.712,25.712,0,0,1-3.532,1.2q-1.957.534-3.778-1.67a7.3,7.3,0,0,1-1.82-4.736q0-1.246,2.587-5.68t2.587-5.311a25.572,25.572,0,0,0-.506-3.052,22.154,22.154,0,0,1-.507-3.367,15.522,15.522,0,0,1,.671-3.778,13.454,13.454,0,0,1,1.328-3.449Q185.732,173.437,189.346,172.151Z" transform="translate(-126.93 -162.104)" fill="url(#h)"/><path d="M151.975,193.508a2.774,2.774,0,0,0-.985-.767A8.026,8.026,0,0,0,149,192.4q-1.821-.15-2.258-.219a8.041,8.041,0,0,1-3.422-1.4q-.151-.109-.287-.219a5.668,5.668,0,0,1-.493-.438q-1.368,1.15-2.669,2.45a38.717,38.717,0,0,0-10.58,18.383q-.1.4-.178.794.233.219.52.452a.874.874,0,0,0,.1.082,11.424,11.424,0,0,1,1.506,1.369,3.978,3.978,0,0,1,.862,2.04,23.3,23.3,0,0,0,.725,3.942q.78.753,1.629,1.506a47.838,47.838,0,0,0,20.819,10.923q1.424-1.642,1.574-1.889a5.4,5.4,0,0,0,.753-3.134,3.433,3.433,0,0,0-1.163-2.313q-.643-.6-3.422-2.573a9.4,9.4,0,0,0-4.12-1.684q-1.136-.136-1.67-.205a6.371,6.371,0,0,1-1.56-.438,22.033,22.033,0,0,0-4.654-.972q-4.2-.589-4.709-.712a11.8,11.8,0,0,1-2.519-.794q-.438-.287-.452-1.93a2.234,2.234,0,0,1,1-2.2q1.013-.561,2.368-1.164t3.627-1.9a44.341,44.341,0,0,0,3.887-2.45,55.535,55.535,0,0,0,5.667-4.7q4.5-4.216,4.421-6.255a3.744,3.744,0,0,0-.383-1.506,1.751,1.751,0,0,0-.958-.944,3.037,3.037,0,0,1-.986-.794m44.622-.931q-1.478-1.478-3.039-2.779-2.04.726-3.011,1.081-3.613,1.287-4.8,3.094a13.455,13.455,0,0,0-1.328,3.449,15.524,15.524,0,0,0-.671,3.778,22.15,22.15,0,0,0,.507,3.367,25.569,25.569,0,0,1,.506,3.052q0,.89-2.587,5.311t-2.587,5.68a7.3,7.3,0,0,0,1.82,4.736q1.821,2.2,3.778,1.67a25.71,25.71,0,0,0,3.532-1.2,6.884,6.884,0,0,1,2.532-.684,7.537,7.537,0,0,1,3.655.657,2.9,2.9,0,0,1,1.314,1.82,50.546,50.546,0,0,0,5.817-4.462,46.526,46.526,0,0,0,5.9-6.241A38.406,38.406,0,0,0,196.6,192.577Z" transform="translate(-128.131 -180.833)" fill="url(#i)"/><path d="M194.333,279.524a5.781,5.781,0,0,0-.178-1.506q-12.114,7.939-27.978,7.939a55.159,55.159,0,0,1-12.962-1.478q-.137.137-.26.287a8.986,8.986,0,0,0-1.807,3,15.36,15.36,0,0,0-.643,5.625,10.228,10.228,0,0,0,2.464,6.776q.657.7,2.094,1.985a12.458,12.458,0,0,1,2.067,2.478q.506,1.027-.164.958t-1.643-.137a2.915,2.915,0,0,1-1.752-.712q-.89-.917-1.424-1.41a3.736,3.736,0,0,0-1.642-.794,4.575,4.575,0,0,1-1.424-.493q-1.587-1.149-3.217-2.477-1.027-.862-3.572-3.08a15.672,15.672,0,0,0-5.2-2.656,12.1,12.1,0,0,1-4.161-1.984,9.9,9.9,0,0,1-1.04-1.574q-.793-1.41-.862-1.519a5.829,5.829,0,0,1-1.082-3.23,14.313,14.313,0,0,1,.821-4.9,13.758,13.758,0,0,0,.821-4.7,8.462,8.462,0,0,0-.534-3.148,4.445,4.445,0,0,1-.287-.725,46.937,46.937,0,0,1-4.284-4.749,43.764,43.764,0,0,0-.41,6.05q0,2.217.205,4.353a40.16,40.16,0,0,0,39.9,35.752,40.346,40.346,0,0,0,39.079-30.688,1.205,1.205,0,0,0-.424.246,41.293,41.293,0,0,1-3.272,2.943,12.855,12.855,0,0,0-2.053,1.9,26.844,26.844,0,0,1-3.928,4.243,9.66,9.66,0,0,1-4.175,2.423q-1.861.383-.931-1.479,1.437-2.888,2.683-5.2a8.37,8.37,0,0,0,1.2-3.052,17.861,17.861,0,0,0-.192-1.862Q194,281.8,194,281.591a7.581,7.581,0,0,1,.164-1.027A7.875,7.875,0,0,0,194.333,279.524Z" transform="translate(-126.072 -233.246)" fill="#21d6ff"/></g><g transform="translate(21.805 12.256)" opacity="0.58" style="mix-blend-mode:multiply;isolation:isolate"><path d="M210.941,199.963h-.378a12.564,12.564,0,0,0-4.175.829,8.123,8.123,0,0,0-3.724,2.488c-.049.068-.1.136-.16.2a58.755,58.755,0,0,0-2.968,8.932,17.272,17.272,0,0,0-.131,7.041q.073.437.175.887.655,3.084,6.662,12.685l-11.259,16.1q-.757,1.106-1.557,2.226l4.131,8.99q2.284-3.113,4.378-5.964c.049-.068.1-.141.146-.218q5.339-7.331,9.339-13.092.335.509.7,1.047,3.331,5.019,7.564,11.129,1.979,2.851,4.146,5.95l4.99-8.626q-.916-1.5-4.32-6.342-3.2-4.539-7.1-10.4-.262-.407-.538-.829,5.571-8.612,6.3-11.507a20.947,20.947,0,0,0,.524-2.764c.01-.107.019-.209.029-.305a19.5,19.5,0,0,0-.713-6.4,49.519,49.519,0,0,0-2.473-7.433,10.513,10.513,0,0,0-4.641-3.8,15.624,15.624,0,0,0-4.946-.829m-.262,6.168a2.377,2.377,0,0,1,.262-.015,13.921,13.921,0,0,1,4.728.829,12.747,12.747,0,0,1,4.364,2.3q.451.393.873.786a28.568,28.568,0,0,1-1.106,2.88,21.081,21.081,0,0,1-1.4,2.618q-1.527,2.517-6.706,9.645-3.521-5.324-5.193-7.9-.931-1.426-1.28-2.022a33.141,33.141,0,0,1-1.746-3.142,19.2,19.2,0,0,1-1.163-2.9,11.6,11.6,0,0,1,4.029-2.138A18.821,18.821,0,0,1,210.68,206.131Z" transform="translate(-193.427 -199.963)" fill="url(#j)"/></g><g transform="translate(20.12 1.684)"><path d="M231.9,228.988q2.232,3.3,4.688,6.9l5.623-9.988q-1.047-1.733-4.888-7.344-3.6-5.249-7.992-12.045l-5.972,9.6q3.765,5.81,8.541,12.88M215.581,185a39.031,39.031,0,0,1-1.958-3.628,22.529,22.529,0,0,0-3.753,6.06,20.714,20.714,0,0,0-.848,2.432q.087.511.2,1.035.748,3.578,7.506,14.688,3.554-5.237,6.16-9.09-3.965-6.172-5.848-9.152-1.06-1.658-1.459-2.344m-2.88-13.853-.175.224a68.367,68.367,0,0,0-3.354,10.349,15.765,15.765,0,0,1,3.08-3.666l.05-.05a13.157,13.157,0,0,1,4.539-2.469,20.434,20.434,0,0,1,4.913-1.1q.137-.013.287-.013v-7.119h-.424a13.592,13.592,0,0,0-4.713.96A9.118,9.118,0,0,0,212.7,171.146Z" transform="translate(-202.29 -167.305)" fill="url(#k)"/><path d="M228.624,228.856q-.312-.474-.624-.96-2.594,4.114-6.135,9.351.386.6.786,1.21l5.972-9.6m-17.032-28.5-.05.05a15.765,15.765,0,0,0-3.08,3.666,20.208,20.208,0,0,0-.15,8.142,20.715,20.715,0,0,1,.848-2.432,22.529,22.529,0,0,1,3.753-6.06A22.572,22.572,0,0,1,211.591,200.353Z" transform="translate(-201.579 -189.654)" fill="#ffbd34"/><path d="M221.092,185.96a9.859,9.859,0,0,0-3.117-3.678,27.653,27.653,0,0,1-1.571,3.042q-1.733,2.918-7.581,11.172-2.606,3.853-6.16,9.09-5.3,7.793-12.693,18.653-.848,1.259-1.746,2.568l4.651,10.411q2.581-3.591,4.925-6.9a2.9,2.9,0,0,1,.187-.262q6.022-8.491,10.523-15.162,3.541-5.237,6.135-9.351,6.3-9.962,7.119-13.317a24.37,24.37,0,0,0,.586-3.217,16.956,16.956,0,0,0-1.259-3.055m-13.117-18.653v7.119a15.425,15.425,0,0,1,5.324.96,14.469,14.469,0,0,1,4.938,2.668q.5.449.985.9,1.234,1.147,2.357,2.319a59.089,59.089,0,0,0-2.793-8.616,11.839,11.839,0,0,0-5.224-4.389A16.814,16.814,0,0,0,207.974,167.307Z" transform="translate(-188.224 -167.306)" fill="url(#l)"/><path d="M280.123,206.61a9.859,9.859,0,0,1,3.117,3.678,16.958,16.958,0,0,1,1.259,3.055c.008-.116.016-.228.025-.337a22.937,22.937,0,0,0-.8-7.407q-1.122-1.172-2.357-2.319A31.212,31.212,0,0,1,280.123,206.61Z" transform="translate(-250.373 -191.635)" fill="#036cad"/></g></g></g></svg>