<svg xmlns="http://www.w3.org/2000/svg" xmlns:xlink="http://www.w3.org/1999/xlink" width="518" height="503" viewBox="0 0 518 503"><defs><linearGradient id="a" x1="0.5" x2="0.5" y2="1" gradientUnits="objectBoundingBox"><stop offset="0" stop-color="#9cdfb5"/><stop offset="0.544" stop-color="#eef8f2"/><stop offset="1" stop-color="#e3fbe8"/><stop offset="1" stop-color="#eaf9ed"/></linearGradient><filter id="b" x="0" y="0" width="518" height="503" filterUnits="userSpaceOnUse"><feOffset dy="45" input="SourceAlpha"/><feGaussianBlur stdDeviation="15" result="c"/><feFlood flood-opacity="0.161"/><feComposite operator="in" in2="c"/><feComposite in="SourceGraphic"/></filter></defs><g transform="matrix(1, 0, 0, 1, 0, 0)" filter="url(#b)"><path d="M43.827,671h0L-64,671a39.751,39.751,0,0,1-15.57-3.143,39.867,39.867,0,0,1-12.715-8.573,39.867,39.867,0,0,1-8.572-12.715A39.748,39.748,0,0,1-104,631V258H324V631a39.967,39.967,0,0,1-40,40H176.174A101.492,101.492,0,0,0,200,605.048c0-53.653-40.374-97.3-90-97.3s-90,43.65-90,97.3A101.493,101.493,0,0,0,43.825,671Z" transform="translate(149 -258)" fill="url(#a)"/></g></svg>